<?xml version="1.0" encoding="UTF-8" standalone="no"?>
<!-- Created with Inkscape (http://www.inkscape.org/) -->

<svg
   width="177.21663mm"
   height="172.80351mm"
   viewBox="0 0 177.21663 172.80351"
   version="1.1"
   id="svg5"
   xmlns:xlink="http://www.w3.org/1999/xlink"
   xmlns="http://www.w3.org/2000/svg"
   xmlns:svg="http://www.w3.org/2000/svg">
  <defs
     id="defs2">
    <path
       id="path_a152f8502b4db31495cf7524b14951ca"
       d="m 76.84235,235.3973 c -1.08258,-0.2374 -5.57612,-1.941 -8.40298,-3.1859 -1.64159,-0.7229 -4.99147,-2.3818 -6.73076,-3.3332 -8.6218,-4.7162 -16.64177,-11.1814 -23.31277,-18.7934 -8.28377,-9.4522 -14.37932,-19.9985 -18.02963,-31.1941 -2.99134,-9.1746 -4.44404,-19.2012 -4.23685,-29.2429 0.07622,-3.6939 0.17918,-5.3099 0.56266,-8.8308 1.27502,-11.7066 5.02973,-23.1389 11.00835,-33.5182 7.96731,-13.83181 18.74178,-24.67961 32.50322,-32.72443 10.10178,-5.90542 21.26617,-9.72384 32.60865,-11.15275 4.40272,-0.55465 6.89557,-0.70495 11.78926,-0.71079 4.7896,-0.0057 7.5646,0.15351 11.7057,0.6716 9.7356,1.218 18.9446,4.00726 27.7334,8.40003 3.734,1.86631 6.2072,3.29943 9.7247,5.63527 5.7856,3.84192 10.4926,7.78629 15.2909,12.81351 7.5794,7.94092 14.0749,18.09836 18.1542,28.38916 4.7775,12.0517 6.764,24.9409 5.9318,38.486 -1.1294,18.3834 -7.5298,34.8849 -19.2026,49.5085 -10.2858,12.886 -22.8531,22.0133 -38.1091,27.6777 -2.9516,1.0959 -3.1864,1.1611 -4.3478,1.2071 -1.1557,0.0458 -1.7216,-0.037 -2.3992,-0.351 -0.8204,-0.3802 -1.6168,-1.3025 -2.0503,-2.3743 l -0.1909,-0.4719 -0.0485,-14.0426 c -0.0474,-13.7448 -0.0522,-14.0729 -0.2292,-15.4784 -0.6496,-5.1584 -2.1467,-8.6608 -4.9592,-11.6017 l -0.7384,-0.7722 1.2318,-0.1421 c 3.512,-0.4052 7.4888,-1.1386 10.5069,-1.9376 5.6385,-1.4928 11.9944,-4.6887 16.1091,-8.1001 4.4289,-3.6719 7.3358,-8.0145 9.5625,-14.2856 1.6581,-4.6697 2.543,-9.2911 2.8919,-15.1038 0.1459,-2.4314 0.0604,-7.1639 -0.1616,-8.9348 -0.7689,-6.1361 -2.9212,-11.5014 -6.5217,-16.2576 -0.7623,-1.007 -1.4067,-1.7852 -1.9191,-2.3177 l -0.3803,-0.3953 0.4334,-1.2765 c 0.7261,-2.1379 1.1422,-4.0314 1.3523,-6.1542 0.11,-1.1101 0.1102,-3.8575 5e-4,-5.2449 -0.2376,-3.0063 -1.3153,-7.4349 -2.544,-10.45399 -0.1862,-0.45755 -0.2173,-0.48838 -0.6021,-0.59619 -0.2232,-0.06253 -0.9336,-0.13389 -1.5788,-0.15857 -2.3623,-0.09038 -4.8107,0.50451 -8.944,2.17315 -4.6554,1.8794 -7.007,3.1215 -12.272,6.482 -0.5874,0.3749 -1.1208,0.6816 -1.1854,0.6816 -0.0646,0 -0.9197,-0.2032 -1.9003,-0.4516 -6.6048,-1.6733 -13.1508,-2.4724 -20.261,-2.4734 -7.15666,-0.001 -13.82651,0.8296 -20.50295,2.5534 -0.7917,0.2044 -1.49505,0.3716 -1.56299,0.3716 -0.06795,0 -0.66182,-0.3509 -1.31973,-0.7799 -4.54117,-2.9605 -6.82304,-4.1284 -12.65103,-6.4745 -2.34904,-0.9456 -4.49091,-1.60701 -6.18729,-1.91059 -1.04121,-0.18634 -3.29301,-0.19816 -3.92927,-0.02063 -0.51603,0.14396 -0.52761,0.16625 -1.29772,2.49812 -1.33635,4.0463 -1.8692,7.1683 -1.8761,10.9922 -0.0061,3.4026 0.4015,5.9376 1.42477,8.8602 0.20926,0.5976 0.40007,1.1486 0.42404,1.2244 0.0284,0.0897 -0.14354,0.3415 -0.49391,0.7232 -2.33435,2.5429 -4.56129,6.0589 -5.94045,9.3789 -2.03775,4.9055 -2.80498,9.7255 -2.57285,16.1637 0.16264,4.5112 0.55544,7.8056 1.35157,11.3358 1.22782,5.4441 3.5467,10.9055 6.20723,14.6192 1.82071,2.5413 4.3567,5.0146 7.15856,6.9813 3.04476,2.1373 8.29562,4.6825 12.08592,5.8583 3.2236,1 8.47719,2.0327 12.567,2.4702 l 0.94495,0.1011 -0.74417,0.7619 c -2.42049,2.478 -4.05515,5.9909 -4.74543,10.1979 l -0.14935,0.9102 -0.50841,0.2291 c -2.18904,0.9863 -5.02151,1.6905 -7.69904,1.914 -2.99942,0.2504 -4.75102,0.1919 -6.39632,-0.2135 -4.00983,-0.9879 -7.88471,-4.0511 -10.45147,-8.2621 -1.90013,-3.1174 -3.23223,-4.7326 -5.15785,-6.2542 -1.59675,-1.2618 -4.28107,-2.7989 -5.70048,-3.2642 -0.93463,-0.3064 -2.94242,-0.639 -3.85797,-0.639 -0.9265,0 -1.91009,0.1335 -2.50776,0.3404 -0.56697,0.1962 -1.08696,0.7052 -1.08696,1.064 0,0.647 1.16077,2.2515 2.2817,3.154 0.37759,0.304 1.12695,0.8137 1.66525,1.1327 0.5383,0.319 1.25804,0.8046 1.59942,1.0791 1.7573,1.4133 4.15098,4.446 5.65634,7.1664 0.54903,0.9921 1.42025,2.9017 2.1077,4.6197 1.28674,3.2156 2.76227,5.2029 5.22177,7.0327 2.75858,2.0524 5.29624,3.0388 9.31077,3.6192 2.76509,0.3998 4.04084,0.4897 6.98142,0.4921 3.02668,0.002 3.73118,-0.052 6.39116,-0.4948 0.93987,-0.1565 1.75363,-0.2845 1.80835,-0.2845 0.14656,0 0.2663,16.6148 0.1253,17.386 -0.15159,0.8291 -0.59869,1.6782 -1.2024,2.2836 -0.85233,0.8547 -1.67444,1.1477 -3.18931,1.1368 -0.5077,-0.004 -1.14884,-0.0562 -1.42476,-0.1166 z"
       fill-rule="evenodd"
       fill="#ffffff"
       fill-opacity="1"
       stroke="none"
       stroke-opacity="1"
       stroke-width="0.1"
       stroke-linecap="round"
       stroke-linejoin="round" />
  </defs>
  <g
     id="layer1"
     transform="translate(-21.695769,-43.892717)">
    <use
       xlink:href="#path_a152f8502b4db31495cf7524b14951ca"
       id="use12"
       x="0"
       y="0"
       width="100%"
       height="100%"
       transform="translate(5.585835,-18.817966)" />
  </g>
</svg>
