<?xml version="1.0" encoding="UTF-8" standalone="no"?>
<!-- Created with Inkscape (http://www.inkscape.org/) -->

<svg
   width="178.78897mm"
   height="178.7728mm"
   viewBox="0 0 178.78897 178.77279"
   version="1.1"
   id="svg5"
   xmlns:xlink="http://www.w3.org/1999/xlink"
   xmlns="http://www.w3.org/2000/svg"
   xmlns:svg="http://www.w3.org/2000/svg">
  <defs
     id="defs2">
    <path
       id="path_a152f8502b4db31495cf7524b14951ca"
       d="m 76.84235,235.3973 c -1.08258,-0.2374 -5.57612,-1.941 -8.40298,-3.1859 -1.64159,-0.7229 -4.99147,-2.3818 -6.73076,-3.3332 -8.6218,-4.7162 -16.64177,-11.1814 -23.31277,-18.7934 -8.28377,-9.4522 -14.37932,-19.9985 -18.02963,-31.1941 -2.99134,-9.1746 -4.44404,-19.2012 -4.23685,-29.2429 0.07622,-3.6939 0.17918,-5.3099 0.56266,-8.8308 1.27502,-11.7066 5.02973,-23.1389 11.00835,-33.5182 7.96731,-13.83181 18.74178,-24.67961 32.50322,-32.72443 10.10178,-5.90542 21.26617,-9.72384 32.60865,-11.15275 4.40272,-0.55465 6.89557,-0.70495 11.78926,-0.71079 4.7896,-0.0057 7.5646,0.15351 11.7057,0.6716 9.7356,1.218 18.9446,4.00726 27.7334,8.40003 3.734,1.86631 6.2072,3.29943 9.7247,5.63527 5.7856,3.84192 10.4926,7.78629 15.2909,12.81351 7.5794,7.94092 14.0749,18.09836 18.1542,28.38916 4.7775,12.0517 6.764,24.9409 5.9318,38.486 -1.1294,18.3834 -7.5298,34.8849 -19.2026,49.5085 -10.2858,12.886 -22.8531,22.0133 -38.1091,27.6777 -2.9516,1.0959 -3.1864,1.1611 -4.3478,1.2071 -1.1557,0.0458 -1.7216,-0.037 -2.3992,-0.351 -0.8204,-0.3802 -1.6168,-1.3025 -2.0503,-2.3743 l -0.1909,-0.4719 -0.0485,-14.0426 c -0.0474,-13.7448 -0.0522,-14.0729 -0.2292,-15.4784 -0.6496,-5.1584 -2.1467,-8.6608 -4.9592,-11.6017 l -0.7384,-0.7722 1.2318,-0.1421 c 3.512,-0.4052 7.4888,-1.1386 10.5069,-1.9376 5.6385,-1.4928 11.9944,-4.6887 16.1091,-8.1001 4.4289,-3.6719 7.3358,-8.0145 9.5625,-14.2856 1.6581,-4.6697 2.543,-9.2911 2.8919,-15.1038 0.1459,-2.4314 0.0604,-7.1639 -0.1616,-8.9348 -0.7689,-6.1361 -2.9212,-11.5014 -6.5217,-16.2576 -0.7623,-1.007 -1.4067,-1.7852 -1.9191,-2.3177 l -0.3803,-0.3953 0.4334,-1.2765 c 0.7261,-2.1379 1.1422,-4.0314 1.3523,-6.1542 0.11,-1.1101 0.1102,-3.8575 5e-4,-5.2449 -0.2376,-3.0063 -1.3153,-7.4349 -2.544,-10.45399 -0.1862,-0.45755 -0.2173,-0.48838 -0.6021,-0.59619 -0.2232,-0.06253 -0.9336,-0.13389 -1.5788,-0.15857 -2.3623,-0.09038 -4.8107,0.50451 -8.944,2.17315 -4.6554,1.8794 -7.007,3.1215 -12.272,6.482 -0.5874,0.3749 -1.1208,0.6816 -1.1854,0.6816 -0.0646,0 -0.9197,-0.2032 -1.9003,-0.4516 -6.6048,-1.6733 -13.1508,-2.4724 -20.261,-2.4734 -7.15666,-0.001 -13.82651,0.8296 -20.50295,2.5534 -0.7917,0.2044 -1.49505,0.3716 -1.56299,0.3716 -0.06795,0 -0.66182,-0.3509 -1.31973,-0.7799 -4.54117,-2.9605 -6.82304,-4.1284 -12.65103,-6.4745 -2.34904,-0.9456 -4.49091,-1.60701 -6.18729,-1.91059 -1.04121,-0.18634 -3.29301,-0.19816 -3.92927,-0.02063 -0.51603,0.14396 -0.52761,0.16625 -1.29772,2.49812 -1.33635,4.0463 -1.8692,7.1683 -1.8761,10.9922 -0.0061,3.4026 0.4015,5.9376 1.42477,8.8602 0.20926,0.5976 0.40007,1.1486 0.42404,1.2244 0.0284,0.0897 -0.14354,0.3415 -0.49391,0.7232 -2.33435,2.5429 -4.56129,6.0589 -5.94045,9.3789 -2.03775,4.9055 -2.80498,9.7255 -2.57285,16.1637 0.16264,4.5112 0.55544,7.8056 1.35157,11.3358 1.22782,5.4441 3.5467,10.9055 6.20723,14.6192 1.82071,2.5413 4.3567,5.0146 7.15856,6.9813 3.04476,2.1373 8.29562,4.6825 12.08592,5.8583 3.2236,1 8.47719,2.0327 12.567,2.4702 l 0.94495,0.1011 -0.74417,0.7619 c -2.42049,2.478 -4.05515,5.9909 -4.74543,10.1979 l -0.14935,0.9102 -0.50841,0.2291 c -2.18904,0.9863 -5.02151,1.6905 -7.69904,1.914 -2.99942,0.2504 -4.75102,0.1919 -6.39632,-0.2135 -4.00983,-0.9879 -7.88471,-4.0511 -10.45147,-8.2621 -1.90013,-3.1174 -3.23223,-4.7326 -5.15785,-6.2542 -1.59675,-1.2618 -4.28107,-2.7989 -5.70048,-3.2642 -0.93463,-0.3064 -2.94242,-0.639 -3.85797,-0.639 -0.9265,0 -1.91009,0.1335 -2.50776,0.3404 -0.56697,0.1962 -1.08696,0.7052 -1.08696,1.064 0,0.647 1.16077,2.2515 2.2817,3.154 0.37759,0.304 1.12695,0.8137 1.66525,1.1327 0.5383,0.319 1.25804,0.8046 1.59942,1.0791 1.7573,1.4133 4.15098,4.446 5.65634,7.1664 0.54903,0.9921 1.42025,2.9017 2.1077,4.6197 1.28674,3.2156 2.76227,5.2029 5.22177,7.0327 2.75858,2.0524 5.29624,3.0388 9.31077,3.6192 2.76509,0.3998 4.04084,0.4897 6.98142,0.4921 3.02668,0.002 3.73118,-0.052 6.39116,-0.4948 0.93987,-0.1565 1.75363,-0.2845 1.80835,-0.2845 0.14656,0 0.2663,16.6148 0.1253,17.386 -0.15159,0.8291 -0.59869,1.6782 -1.2024,2.2836 -0.85233,0.8547 -1.67444,1.1477 -3.18931,1.1368 -0.5077,-0.004 -1.14884,-0.0562 -1.42476,-0.1166 z"
       fill-rule="evenodd"
       fill="#ffffff"
       fill-opacity="1"
       stroke="none"
       stroke-opacity="1"
       stroke-width="0.1"
       stroke-linecap="round"
       stroke-linejoin="round" />
    <path
       id="path_64ab145e79b455e8451562466dd4a41f"
       d="M 17.47503,101.6786 V 12.2922 h 89.39447 89.3945 v 89.3864 89.3864 H 106.8695 17.47503 Z m 48.13007,72.9039 c 0.24945,-0.1283 0.38866,-0.2681 0.51901,-0.5213 l 0.17813,-0.3459 -8.7e-4,-48.0502 -8.5e-4,-48.05013 -0.16344,-0.33746 C 66.02207,77.04006 65.88125,76.89067 65.6619,76.77342 L 65.35014,76.6068 51.2095,76.59277 c -15.65392,-0.01551 -14.62039,-0.0476 -15.07324,0.46791 -0.12378,0.14091 -0.26085,0.38398 -0.30461,0.54017 -0.11122,0.39698 -0.11024,95.79215 9.8e-4,96.19405 0.1584,0.5725 0.59649,0.8968 1.31144,0.9707 0.1241,0.0129 6.50191,0.0164 14.1729,0.008 l 13.94725,-0.0155 z m 49.1676,0.0919 c 0.4169,-0.1375 0.7574,-0.4824 0.911,-0.9226 0.1308,-0.3748 0.1356,-1.2421 0.1145,-20.6516 -0.0249,-22.9922 0.041,-30.7558 0.2815,-33.1158 0.4616,-4.5311 1.2908,-7.7301 2.7658,-10.6698 2.4744,-4.9314 7.0116,-7.8042 13.0085,-8.2363 2.7107,-0.1954 5.6862,3e-4 7.4501,0.4898 3.685,1.0228 6.3065,3.2025 8.0672,6.7076 1.1639,2.3171 2.0089,5.4665 2.365,8.8143 0.0637,0.5996 0.1376,1.2423 0.1641,1.4284 0.0266,0.1861 0.0697,12.6693 0.0958,27.7406 l 0.0474,27.4023 0.1736,0.3522 c 0.1763,0.3577 0.4707,0.591 0.8729,0.6919 0.3366,0.0845 28.3221,0.0639 28.6072,-0.021 0.3953,-0.1177 0.7041,-0.384 0.8732,-0.753 l 0.1582,-0.3453 -0.0215,-28.4548 c -0.0124,-16.4268 -0.0518,-29.1698 -0.0932,-30.1463 -0.2528,-5.9577 -0.6698,-9.7222 -1.5448,-13.9454 -1.2638,-6.09951 -3.2975,-11.03974 -6.1587,-14.96041 -1.2112,-1.65979 -3.1077,-3.64216 -4.7398,-4.95433 -1.0587,-0.85122 -2.8839,-2.06097 -4.1467,-2.74843 -4.8059,-2.61638 -11.2484,-4.07038 -18.5686,-4.19067 -1.4967,-0.0246 -2.9897,-0.0074 -3.7608,0.04338 -4.9555,0.32618 -9.2865,1.44891 -13.3885,3.47066 -5.3864,2.65487 -9.5793,6.42282 -12.717,11.42828 l -0.4504,0.71839 -0.2479,-0.06421 -0.2479,-0.06423 0.0148,-6.06695 c 0.0158,-6.53356 0.0243,-6.37846 -0.3661,-6.73152 -0.3811,-0.34473 -0.0332,-0.33638 -14.1618,-0.33942 -14.54621,-0.0031 -13.87714,-0.02276 -14.3012,0.41965 -0.11101,0.1158 -0.25428,0.35913 -0.31838,0.54074 -0.10479,0.29687 -0.11646,5.1515 -0.11536,48.12977 l 0.0012,47.7995 0.15479,0.4136 c 0.18413,0.4918 0.46119,0.7178 1.01585,0.8285 0.58715,0.1172 27.84689,0.0809 28.20599,-0.0375 z M 53.11167,63.18292 c 5.90797,-0.64557 11.24091,-4.47607 13.96632,-10.0316 1.38052,-2.81409 1.91597,-5.46774 1.75961,-8.72061 -0.2438,-5.07188 -2.89207,-9.97568 -7.07255,-13.09618 -7.09556,-5.29645 -16.9733,-4.59786 -23.21919,1.64215 -2.69078,2.68824 -4.35012,5.9124 -5.02436,9.76252 -0.19758,1.12825 -0.19707,4.27711 8.9e-4,5.4128 0.69666,3.99681 2.4065,7.28806 5.22137,10.05052 2.72453,2.6738 6.44761,4.47059 10.24687,4.94524 0.98256,0.12276 3.1502,0.14125 4.12104,0.03516 z"
       fill-rule="evenodd"
       fill="#ffffff"
       fill-opacity="1"
       stroke="none"
       stroke-opacity="1"
       stroke-width="0.1"
       stroke-linecap="round"
       stroke-linejoin="round" />
  </defs>
  <g
     id="layer1"
     transform="translate(135.16626,-22.687807)">
    <use
       xlink:href="#path_64ab145e79b455e8451562466dd4a41f"
       id="use32"
       x="0"
       y="0"
       width="100%"
       height="100%"
       transform="translate(-152.64129,10.395607)" />
  </g>
</svg>
