<?xml version="1.0" encoding="UTF-8" standalone="no"?>
<!-- Created with Inkscape (http://www.inkscape.org/) -->

<svg
   width="135.90109mm"
   height="135.9324mm"
   viewBox="0 0 135.90109 135.9324"
   version="1.1"
   id="svg5"
   xmlns:xlink="http://www.w3.org/1999/xlink"
   xmlns="http://www.w3.org/2000/svg"
   xmlns:svg="http://www.w3.org/2000/svg">
  <defs
     id="defs2">
    <path
       id="path_af9d36169856d6e0ae669c26168d3479"
       d="M 34.3024,142.055 V 74.08879 h 67.9505 67.9506 V 142.055 210.0212 H 102.2529 34.3024 Z m 70.812,45.0686 c 0.3602,-0.0364 1.0429,-0.0976 1.5169,-0.1361 0.8489,-0.0689 1.5728,-0.1646 2.9304,-0.3871 1.5294,-0.2508 1.6873,-0.2818 2.9993,-0.5895 1.0146,-0.238 2.3124,-0.5896 2.7925,-0.7567 0.1138,-0.0395 0.362,-0.113 0.5516,-0.1633 0.1896,-0.0504 0.562,-0.1739 0.8274,-0.2746 0.2655,-0.1008 0.5887,-0.2102 0.7182,-0.2432 0.1296,-0.033 0.3313,-0.1054 0.4482,-0.1608 0.117,-0.0554 0.3988,-0.1686 0.6263,-0.2514 0.2276,-0.0828 0.5412,-0.2102 0.6971,-0.2832 0.1558,-0.0729 0.3217,-0.1326 0.3686,-0.1326 0.0469,0 0.1675,-0.0441 0.2682,-0.0981 0.1006,-0.054 0.3226,-0.1591 0.4933,-0.2337 0.8172,-0.357 1.2171,-0.5463 2.2064,-1.0442 0.5878,-0.2959 1.2392,-0.6385 1.4474,-0.7615 0.2083,-0.1229 0.441,-0.2525 0.5172,-0.2879 0.0761,-0.0354 0.2506,-0.1327 0.3878,-0.2161 0.1371,-0.0834 0.4474,-0.2692 0.6895,-0.413 0.6058,-0.3599 2.2108,-1.4115 2.815,-1.8444 0.6041,-0.4329 1.9761,-1.4697 2.0379,-1.54 0.038,-0.0431 0.1862,-0.166 0.3296,-0.2731 0.1433,-0.1071 0.3139,-0.2482 0.3792,-0.3135 0.0653,-0.0653 0.2884,-0.257 0.4959,-0.426 1.4778,-1.2033 4.8471,-4.6688 5.6517,-5.8129 0.0546,-0.0776 0.1562,-0.198 0.2257,-0.2676 0.1167,-0.1167 1.1035,-1.4253 1.4972,-1.9854 0.7367,-1.0479 2.1064,-3.1815 2.4339,-3.7912 0.1242,-0.2312 0.2926,-0.5357 0.3743,-0.6767 0.4192,-0.723 1.7056,-3.3825 2.0392,-4.2158 0.1132,-0.283 0.23,-0.5631 0.2593,-0.6224 0.0294,-0.0593 0.1164,-0.2785 0.1933,-0.4871 0.077,-0.2086 0.2173,-0.581 0.3119,-0.8276 0.2078,-0.5412 0.5952,-1.7057 0.8032,-2.4138 0.0836,-0.2845 0.1935,-0.6414 0.2443,-0.7931 0.0507,-0.1517 0.1125,-0.3845 0.1372,-0.5172 0.0248,-0.1328 0.0854,-0.3656 0.1348,-0.5173 0.0494,-0.1517 0.1586,-0.5862 0.2427,-0.9655 0.0842,-0.3793 0.1963,-0.8759 0.2491,-1.1035 0.0529,-0.2276 0.1271,-0.6155 0.165,-0.8621 0.0378,-0.2465 0.0975,-0.5474 0.1326,-0.6686 0.0351,-0.1213 0.0841,-0.4316 0.1088,-0.6897 0.0246,-0.2581 0.0871,-0.7175 0.1388,-1.021 0.0517,-0.3035 0.113,-0.7845 0.1361,-1.069 0.0232,-0.2845 0.0897,-0.9854 0.1479,-1.5575 0.1564,-1.5394 0.1017,-5.9494 -0.0982,-7.9108 -0.0804,-0.7886 -0.1604,-1.4569 -0.1779,-1.4852 -0.0175,-0.0283 -0.0668,-0.3762 -0.1095,-0.7732 -0.0428,-0.3969 -0.1096,-0.8429 -0.1486,-0.991 -0.0389,-0.1481 -0.1137,-0.505 -0.1662,-0.7931 -0.1928,-1.0574 -0.3083,-1.6298 -0.3495,-1.7307 -0.0232,-0.0569 -0.1018,-0.3517 -0.1747,-0.6552 -0.2373,-0.9878 -0.3202,-1.3069 -0.3942,-1.5173 -0.1175,-0.3342 -0.2848,-0.8708 -0.3871,-1.2414 -0.1257,-0.4553 -0.3037,-0.9826 -0.4226,-1.2518 -0.0528,-0.1195 -0.097,-0.2592 -0.0983,-0.3103 -0.001,-0.0512 -0.0623,-0.2172 -0.1356,-0.3689 -0.0732,-0.1517 -0.1343,-0.3138 -0.1355,-0.3602 -0.002,-0.0814 -0.19,-0.5344 -0.3889,-0.9385 -0.0529,-0.1074 -0.0961,-0.2257 -0.0961,-0.2629 0,-0.06 -0.1535,-0.4229 -0.4478,-1.0591 -0.0526,-0.1138 -0.1938,-0.4242 -0.3137,-0.6897 -0.606,-1.3417 -1.4128,-2.8655 -2.2723,-4.2911 -0.2465,-0.4089 -0.4637,-0.7757 -0.4827,-0.8151 -0.0355,-0.0738 -1.093,-1.6673 -1.1881,-1.7904 -0.1424,-0.1842 -1.136,-1.5431 -1.2372,-1.6921 -0.0635,-0.0935 -0.1988,-0.2631 -0.3007,-0.3769 -0.102,-0.1138 -0.267,-0.3155 -0.3668,-0.4483 -0.0999,-0.1328 -0.2024,-0.2571 -0.2279,-0.2764 -0.0255,-0.0192 -0.1444,-0.1589 -0.2643,-0.3103 -1.3987,-1.7671 -4.1359,-4.4593 -6.2749,-6.172 -0.3982,-0.3188 -0.7395,-0.5968 -0.7584,-0.6178 -0.0701,-0.0774 -1.1519,-0.8724 -1.579,-1.1603 -0.2427,-0.1636 -0.5219,-0.3604 -0.6205,-0.4373 -0.3198,-0.2493 -1.5968,-1.0616 -2.2678,-1.4424 -0.1028,-0.0583 -0.3165,-0.1892 -0.4749,-0.2908 -0.3672,-0.2355 -1.0807,-0.6161 -2.4743,-1.3198 -1.1441,-0.5777 -1.1886,-0.5988 -1.9953,-0.9464 -0.5882,-0.2535 -0.8029,-0.3483 -1.2141,-0.5364 -0.1748,-0.08 -0.3455,-0.1455 -0.3793,-0.1456 -0.0337,-2e-4 -0.2941,-0.09561 -0.5785,-0.21213 -0.2844,-0.11652 -0.9981,-0.3681 -1.5859,-0.55905 -0.5878,-0.19095 -1.1308,-0.37326 -1.2066,-0.40521 -0.0758,-0.03191 -0.3241,-0.10718 -0.5516,-0.16726 -0.2275,-0.06008 -0.6309,-0.17028 -0.8963,-0.24496 -0.2655,-0.07463 -0.6689,-0.17918 -0.8964,-0.23232 -0.2275,-0.05313 -0.5986,-0.14613 -0.8247,-0.20669 -0.226,-0.06056 -0.484,-0.11014 -0.5733,-0.11014 -0.0894,0 -0.2205,-0.03107 -0.2914,-0.06906 -0.071,-0.03798 -0.3715,-0.10152 -0.6678,-0.14124 -0.2963,-0.03971 -0.6318,-0.10083 -0.7456,-0.13584 -0.1137,-0.03501 -0.5016,-0.09664 -0.8619,-0.13694 -0.3602,-0.04031 -0.7946,-0.10357 -0.9652,-0.14058 -0.8317,-0.18037 -4.1238,-0.40258 -5.9643,-0.40258 -1.7951,0 -5.16364,0.2243 -5.98106,0.39828 -0.16137,0.03436 -0.47954,0.08141 -0.70708,0.10454 -0.4457,0.04535 -1.80452,0.28018 -2.30983,0.3992 -0.17066,0.04019 -0.51196,0.11189 -0.75845,0.15938 -0.52106,0.10038 -1.24212,0.27745 -1.58164,0.38844 -0.13043,0.04263 -0.40965,0.11739 -0.62056,0.16612 -0.21089,0.04874 -0.60062,0.15567 -0.86609,0.23767 -0.26547,0.08199 -0.6533,0.19645 -0.86188,0.25434 -0.20858,0.0579 -0.41024,0.12945 -0.44819,0.15901 -0.03792,0.02952 -0.17742,0.07693 -0.31,0.10536 -0.13258,0.02841 -0.33426,0.09091 -0.44817,0.13889 -0.1139,0.04802 -0.42431,0.16629 -0.68977,0.26287 -0.98659,0.35891 -1.44975,0.5438 -1.51347,0.604 -0.03603,0.0341 -0.1102,0.062 -0.16483,0.062 -0.05461,0 -0.24235,0.0654 -0.41714,0.1454 -0.17482,0.0799 -0.44193,0.201 -0.59363,0.2689 -0.24466,0.1094 -1.64641,0.7735 -2.10298,0.9962 -0.41628,0.203 -1.62985,0.8636 -2.52765,1.3759 -0.88406,0.5044 -2.53876,1.5954 -3.71236,2.4478 -0.87227,0.6335 -2.20546,1.6727 -2.34431,1.8275 -0.03794,0.0422 -0.2385,0.2164 -0.44571,0.3869 -0.92713,0.763 -3.45363,3.244 -4.38404,4.3051 -0.26368,0.3008 -0.59049,0.6732 -0.72623,0.8276 -1.16637,1.3273 -3.53009,4.6303 -4.29734,6.0051 -0.06351,0.1138 -0.1887,0.331 -0.27824,0.4827 -0.08953,0.1517 -0.26193,0.4621 -0.38313,0.6897 -0.1212,0.2276 -0.29861,0.5534 -0.39425,0.7241 -0.35129,0.627 -1.13821,2.2365 -1.50063,3.069 -0.04952,0.1138 -0.15545,0.35 -0.23538,0.5249 -0.07994,0.1748 -0.14533,0.3626 -0.14533,0.4172 0,0.0547 -0.02813,0.1288 -0.06251,0.1648 -0.05659,0.0594 -0.2601,0.5689 -0.6459,1.6173 -0.07678,0.2086 -0.17822,0.4724 -0.22545,0.5862 -0.04722,0.1138 -0.10821,0.3155 -0.13557,0.4483 -0.02735,0.1328 -0.0743,0.2724 -0.10435,0.3103 -0.03006,0.038 -0.10249,0.2397 -0.16096,0.4483 -0.05847,0.2087 -0.17147,0.5966 -0.25112,0.8621 -0.23809,0.7938 -0.40808,1.4211 -0.51734,1.9093 -0.05673,0.2535 -0.13034,0.5328 -0.16357,0.6206 -0.03323,0.0879 -0.08364,0.3305 -0.11203,0.5391 -0.0284,0.2086 -0.08142,0.4569 -0.11783,0.5517 -0.06891,0.1794 -0.17447,0.7679 -0.35879,2.0001 -0.05959,0.3982 -0.14091,0.9103 -0.18076,1.1379 -0.0708,0.4045 -0.2212,1.9661 -0.34206,3.5518 -0.07816,1.0253 -0.07784,3.9465 5.5e-4,4.9655 0.13654,1.7752 0.2714,3.1842 0.3411,3.5637 0.04061,0.221 0.12234,0.7278 0.18167,1.126 0.20696,1.3894 0.3079,1.9479 0.37455,2.0725 0.03691,0.0689 0.06728,0.1973 0.06748,0.2851 2.1e-4,0.0878 0.11166,0.5942 0.24769,1.1252 0.13602,0.5311 0.27462,1.0979 0.308,1.2597 0.03337,0.1617 0.08846,0.3479 0.12243,0.4137 0.03396,0.0659 0.10164,0.2904 0.15045,0.4991 0.04878,0.2086 0.11252,0.4258 0.14161,0.4827 0.02909,0.0569 0.1531,0.4293 0.2756,0.8276 0.12251,0.3983 0.24904,0.7536 0.28121,0.7897 0.03217,0.036 0.05848,0.1207 0.05848,0.1882 0,0.0675 0.12259,0.426 0.27242,0.7966 0.14984,0.3706 0.2925,0.7579 0.31704,0.8607 0.02455,0.1027 0.08814,0.2229 0.14131,0.267 0.05316,0.0441 0.09665,0.1472 0.09665,0.2289 0,0.0817 0.04235,0.2098 0.09413,0.2846 0.05177,0.0749 0.11824,0.2137 0.14769,0.3085 0.11251,0.3622 1.23524,2.6801 1.77709,3.6688 0.16,0.292 0.37986,0.6954 0.48856,0.8966 0.10872,0.2011 0.22917,0.4049 0.26769,0.4527 0.03852,0.0479 0.12024,0.1792 0.18158,0.2917 0.31385,0.576 1.23071,1.982 1.86678,2.8627 0.19176,0.2655 0.42174,0.5914 0.5111,0.7241 0.15765,0.2343 1.67514,2.1398 2.08244,2.6149 1.08667,1.2678 2.85411,3.0813 4.03067,4.1358 0.3971,0.3559 0.81508,0.7307 0.92885,0.8329 0.64366,0.5783 3.21839,2.5472 4.05632,3.1018 0.08231,0.0545 0.3277,0.2174 0.54535,0.3621 0.21761,0.1447 0.42705,0.263 0.46539,0.263 0.03835,0 0.06974,0.0253 0.06974,0.0562 0,0.0309 0.10084,0.1088 0.22409,0.1732 0.12324,0.0644 0.30658,0.171 0.40739,0.2369 0.16495,0.108 1.46201,0.8578 1.93595,1.1193 0.84838,0.4681 3.26846,1.6404 4.0518,1.9628 0.24649,0.1014 0.54126,0.2256 0.65503,0.2759 0.11377,0.0503 0.28442,0.1142 0.37922,0.142 0.09481,0.0279 0.2034,0.0746 0.24132,0.104 0.03792,0.0293 0.17755,0.086 0.31027,0.1257 0.13274,0.0398 0.45853,0.1539 0.72399,0.2535 0.26549,0.0996 0.59126,0.2113 0.724,0.2481 0.1327,0.0368 0.3499,0.1097 0.48263,0.1618 0.13274,0.0521 0.47405,0.1634 0.75847,0.2473 0.28443,0.0839 0.65674,0.1977 0.82739,0.2531 0.17066,0.0553 0.48093,0.1426 0.6895,0.1939 0.20859,0.0514 0.64296,0.1592 0.96532,0.2396 0.32236,0.0804 0.74123,0.1777 0.93082,0.2163 0.18962,0.0385 0.49989,0.1122 0.6895,0.1636 0.18962,0.0514 0.53091,0.1153 0.75845,0.1418 0.22754,0.0266 0.48521,0.0751 0.57262,0.1078 0.0874,0.0327 0.55064,0.1078 1.02943,0.1668 0.47879,0.0591 0.89357,0.1216 0.92174,0.139 0.02817,0.0174 0.60434,0.0813 1.28039,0.1419 0.67607,0.0607 1.4464,0.1334 1.71186,0.1616 0.72031,0.0764 5.07301,0.0776 5.82631,0.002 z m -5.48156,-6.4148 c -1.05394,-0.0702 -2.87091,-0.2705 -3.10276,-0.3421 -0.11377,-0.0352 -0.40856,-0.0833 -0.65503,-0.1071 -0.24649,-0.0237 -0.60332,-0.0849 -0.79294,-0.1359 -0.18961,-0.051 -0.4999,-0.113 -0.6895,-0.1378 -0.18961,-0.0248 -0.45336,-0.0788 -0.58608,-0.1198 -0.13272,-0.0411 -0.42749,-0.1127 -0.65503,-0.1589 -0.22753,-0.0463 -0.66192,-0.1537 -0.96531,-0.2386 -0.30338,-0.085 -0.75327,-0.21 -0.99977,-0.2779 -0.47919,-0.132 -0.72846,-0.2138 -1.27692,-0.4194 -0.19034,-0.0713 -0.39201,-0.1307 -0.44817,-0.132 -0.05615,-0.001 -0.22621,-0.0623 -0.37789,-0.1356 -0.15171,-0.0733 -0.30382,-0.1343 -0.33805,-0.1356 -0.0665,-0.002 -1.58525,-0.6026 -1.76257,-0.6964 -0.0582,-0.0308 -0.29196,-0.1383 -0.5195,-0.2389 -1.17015,-0.5173 -1.52289,-0.6875 -2.3443,-1.1309 -0.30338,-0.1637 -0.93244,-0.519 -1.39787,-0.7894 -0.46549,-0.2703 -0.90021,-0.5226 -0.96615,-0.5606 -0.13813,-0.0795 -1.73855,-1.1425 -1.84196,-1.2235 -0.19453,-0.1523 -0.58849,-0.4438 -0.72302,-0.5351 -1.46582,-0.9942 -4.40724,-3.6982 -6.07674,-5.5863 -0.51012,-0.5769 -1.85814,-2.2469 -2.06036,-2.5525 -0.05689,-0.086 -0.21202,-0.2998 -0.34476,-0.4752 -0.30341,-0.4008 -1.30102,-1.9189 -1.70403,-2.593 -0.69982,-1.1705 -1.77759,-3.2437 -2.18714,-4.207 -0.04838,-0.1138 -0.15214,-0.3465 -0.23059,-0.5172 -0.07846,-0.1707 -0.16472,-0.388 -0.19167,-0.4828 -0.02696,-0.0948 -0.09137,-0.2336 -0.14314,-0.3084 -0.05178,-0.0748 -0.09413,-0.1788 -0.09413,-0.231 0,-0.0522 -0.04518,-0.1927 -0.10036,-0.3122 -0.11316,-0.2451 -0.27583,-0.6881 -0.42168,-1.1484 -0.05411,-0.1707 -0.1271,-0.3724 -0.16224,-0.4483 -0.05866,-0.1266 -0.28525,-0.8722 -0.52394,-1.7241 -0.05314,-0.1897 -0.14509,-0.5082 -0.20435,-0.7079 -0.05926,-0.1996 -0.15535,-0.5875 -0.21356,-0.862 -0.31897,-1.5043 -0.38804,-1.8463 -0.44895,-2.2233 -0.03676,-0.2276 -0.11059,-0.6465 -0.16406,-0.931 -0.05346,-0.2845 -0.11637,-0.7655 -0.13978,-1.069 -0.02342,-0.3035 -0.09166,-0.8931 -0.15167,-1.3104 -0.13788,-0.9586 -0.16007,-5.9204 -0.02993,-6.6897 0.04492,-0.2655 0.12645,-0.9172 0.18121,-1.4483 0.05476,-0.531 0.13287,-1.1517 0.17356,-1.3793 0.04069,-0.2276 0.10694,-0.6 0.14721,-0.8276 0.19783,-1.1181 0.47174,-2.3535 0.71108,-3.2069 0.10104,-0.3604 0.225,-0.8156 0.27543,-1.0117 0.05043,-0.1961 0.11412,-0.3928 0.14154,-0.4372 0.02742,-0.0443 0.09121,-0.2253 0.14177,-0.4021 0.11856,-0.4146 0.2931,-0.9468 0.41079,-1.2525 0.05111,-0.1328 0.17419,-0.4587 0.27352,-0.7242 0.19809,-0.5295 0.21868,-0.5791 0.47806,-1.1509 0.09786,-0.2157 0.17794,-0.4164 0.17794,-0.4458 0,-0.1083 1.17202,-2.481 1.54479,-3.1274 0.09844,-0.1707 0.22764,-0.4035 0.28713,-0.5173 0.05949,-0.1138 0.17583,-0.3199 0.25856,-0.4579 0.08273,-0.1381 0.25787,-0.4329 0.38921,-0.6552 0.2108,-0.3568 0.90337,-1.4011 1.38858,-2.0938 0.093,-0.1328 0.43494,-0.5983 0.75989,-1.0345 0.54679,-0.734 0.90842,-1.1739 2.01275,-2.4483 0.51946,-0.5995 2.31845,-2.3964 3.01213,-3.0087 1.15785,-1.022 1.91817,-1.6523 2.44347,-2.0258 0.10669,-0.0759 0.2754,-0.203 0.37492,-0.2825 0.35002,-0.2796 2.27132,-1.5934 2.61842,-1.7905 0.10047,-0.057 0.27573,-0.1638 0.3895,-0.2373 0.11377,-0.0735 0.29993,-0.1809 0.4137,-0.2386 0.11377,-0.0578 0.36976,-0.1984 0.56883,-0.3126 1.2968,-0.7436 2.46713,-1.3249 3.87846,-1.9263 0.28443,-0.1212 0.5792,-0.248 0.65503,-0.2817 0.07585,-0.0337 0.3551,-0.1425 0.62058,-0.2419 0.26545,-0.0994 0.59123,-0.2225 0.72395,-0.2736 0.26822,-0.1033 0.7693,-0.27 1.2411,-0.4129 0.17066,-0.0517 0.40339,-0.1262 0.51716,-0.1654 0.52723,-0.1819 1.12339,-0.3541 1.2263,-0.3541 0.06236,0 0.26185,-0.0511 0.44331,-0.1136 0.18147,-0.0625 0.53162,-0.1573 0.77811,-0.2107 0.95682,-0.2074 1.77832,-0.3684 2.24089,-0.4393 0.26546,-0.0408 0.68434,-0.1164 0.93083,-0.1682 0.24649,-0.0518 0.71188,-0.1138 1.03424,-0.1379 0.32236,-0.0241 0.91187,-0.0924 1.31006,-0.1517 1.03929,-0.1551 5.85515,-0.156 6.89505,-0.001 0.3982,0.0592 0.9877,0.1268 1.31,0.1503 0.3224,0.0235 0.8033,0.0867 1.0688,0.1404 0.2654,0.0538 0.6998,0.1299 0.9653,0.1692 1.0478,0.1551 2.8577,0.582 4.4128,1.0409 0.8789,0.2594 1.0988,0.3307 1.5859,0.5137 0.2654,0.0998 0.5819,0.2118 0.7032,0.2489 0.1213,0.0371 0.3075,0.1128 0.4137,0.1682 0.1062,0.0554 0.2311,0.101 0.2775,0.1012 0.0464,2e-4 0.2325,0.0662 0.4137,0.1465 0.1811,0.0803 0.4224,0.1863 0.5362,0.2354 0.1137,0.0491 0.393,0.1724 0.6205,0.2739 0.2275,0.1015 0.5533,0.2461 0.724,0.3212 0.1707,0.0751 0.3568,0.1655 0.4137,0.2009 0.0569,0.0353 0.181,0.0952 0.2758,0.133 0.0948,0.0378 0.2189,0.0977 0.2758,0.1332 0.0569,0.0354 0.3051,0.17 0.5516,0.299 0.7563,0.3959 1.3214,0.7115 1.8617,1.0399 0.2844,0.1728 0.6877,0.4146 0.8963,0.5372 0.2086,0.1226 0.3947,0.2409 0.4137,0.2631 0.019,0.0221 0.2672,0.1937 0.5516,0.3815 0.5159,0.3405 2.2244,1.5936 2.5512,1.8712 1.7022,1.4459 1.7103,1.4531 2.6273,2.3424 1.1151,1.0814 2.3534,2.4066 2.9475,3.1541 0.1004,0.1263 0.2291,0.281 0.286,0.3437 0.1127,0.1242 0.1397,0.1589 0.7752,0.996 0.649,0.855 0.911,1.2142 0.9424,1.2923 0.0155,0.0388 0.1474,0.2321 0.293,0.4297 0.1456,0.1975 0.2647,0.3725 0.2647,0.3889 0,0.0163 0.1705,0.2874 0.3788,0.6022 0.2083,0.3149 0.3965,0.6287 0.4183,0.6973 0.0218,0.0687 0.0655,0.1248 0.0972,0.1248 0.0316,0 0.0928,0.0854 0.1359,0.1897 0.0432,0.1043 0.1523,0.3138 0.2425,0.4655 0.341,0.5732 1.6233,3.0609 1.6233,3.1492 0,0.0273 0.1241,0.3134 0.2757,0.6357 0.1517,0.3223 0.2758,0.6277 0.2758,0.6784 0,0.0508 0.0424,0.1535 0.0942,0.2284 0.0518,0.0748 0.1163,0.2136 0.1434,0.3084 0.0271,0.0949 0.1521,0.4362 0.2777,0.7586 0.2626,0.6742 0.4297,1.1643 0.5238,1.5368 0.0362,0.1436 0.0956,0.3143 0.1319,0.3794 0.0362,0.0651 0.1141,0.3045 0.173,0.5321 0.059,0.2276 0.1705,0.6466 0.2479,0.9311 0.0774,0.2845 0.1803,0.7034 0.2286,0.931 0.0483,0.2276 0.1222,0.5224 0.1642,0.6552 0.0995,0.3143 0.2872,1.3175 0.3956,2.1143 0.0472,0.3473 0.1048,0.6621 0.1279,0.6995 0.0231,0.0374 0.0905,0.5601 0.1498,1.1616 0.0593,0.6015 0.1352,1.3419 0.1686,1.6453 0.0784,0.713 0.0778,4.9954 -9e-4,5.7587 -0.0332,0.3225 -0.1053,1.0362 -0.1601,1.5863 -0.0549,0.55 -0.1316,1.1241 -0.1705,1.2758 -0.039,0.1518 -0.091,0.4776 -0.1155,0.7242 -0.0246,0.2465 -0.0762,0.5497 -0.1147,0.6736 -0.0385,0.1239 -0.1127,0.4653 -0.165,0.7586 -0.1289,0.7228 -0.4433,2.0026 -0.7241,2.9471 -0.3634,1.2229 -0.4375,1.4567 -0.4804,1.5173 -0.0269,0.0379 -0.0702,0.1621 -0.0961,0.2759 -0.0449,0.1965 -0.2341,0.7218 -0.4223,1.1724 -0.0476,0.1138 -0.1559,0.3931 -0.2406,0.6207 -0.1458,0.3913 -0.2637,0.6715 -0.5513,1.3103 -0.1739,0.3862 -1.2982,2.6675 -1.3765,2.7931 -0.0355,0.0569 -0.2692,0.4604 -0.5193,0.8966 -0.8125,1.4171 -1.3257,2.1932 -2.5086,3.7932 -0.7611,1.0295 -0.975,1.2906 -2.1747,2.654 -1.7405,1.9781 -4.0776,4.0578 -6.4857,5.7714 -0.1517,0.1079 -0.4155,0.298 -0.5861,0.4223 -0.1707,0.1244 -0.5834,0.3957 -0.9173,0.6031 -0.3338,0.2073 -0.6801,0.4234 -0.7696,0.4803 -0.237,0.1507 -0.8818,0.5206 -1.0022,0.5749 -0.0569,0.0256 -0.3206,0.1704 -0.5861,0.3217 -0.7747,0.4415 -2.5421,1.2962 -3.3441,1.6172 -0.2464,0.0986 -0.507,0.2127 -0.5788,0.2534 -0.0719,0.0408 -0.2891,0.1295 -0.4827,0.1972 -1.2209,0.4271 -1.6086,0.5674 -1.731,0.6261 -0.0758,0.0365 -0.293,0.1091 -0.4826,0.1614 -0.1896,0.0524 -0.562,0.1624 -0.8274,0.2446 -0.2655,0.0822 -0.6533,0.1891 -0.8619,0.2375 -0.2086,0.0484 -0.4878,0.1226 -0.6205,0.1648 -0.3608,0.1148 -1.1406,0.2935 -1.7238,0.3949 -0.2844,0.0495 -0.5637,0.108 -0.6206,0.1301 -0.0936,0.0364 -0.686,0.1329 -1.9306,0.3145 -0.6942,0.1013 -1.8818,0.2206 -2.7924,0.2805 -0.9762,0.0641 -4.1179,0.0622 -5.10236,-0.003 z m 8.08186,-9.4588 c 0.072,-0.0597 0.0889,-3.6702 0.0897,-19.0826 5e-4,-10.455 0.0197,-19.0788 0.0425,-19.1642 l 0.0416,-0.1552 h 8.1231 c 7.2928,0 8.1343,-0.011 8.2316,-0.1083 0.0966,-0.0967 0.1083,-0.6846 0.1083,-5.4352 0,-4.4916 -0.0153,-5.3478 -0.0978,-5.4607 -0.0965,-0.1319 -0.4078,-0.1341 -21.909,-0.1502 -17.49686,-0.0132 -21.8452,9e-4 -21.98348,0.071 l -0.17239,0.0874 -0.01764,5.4042 c -0.01286,3.9352 0.0035,5.4298 0.06013,5.4981 0.06482,0.0781 1.43735,0.0937 8.20554,0.0937 4.47024,0 8.1353,0.008 8.14462,0.0173 0.0093,0.01 0.03258,8.644 0.05171,19.1878 l 0.03478,19.1706 0.14235,0.071 c 0.20073,0.1001 10.78218,0.0568 10.90438,-0.0447 z"
       fill-rule="evenodd"
       fill="#ffffff"
       fill-opacity="1"
       stroke="none"
       stroke-opacity="1"
       stroke-width="0.1"
       stroke-linecap="round"
       stroke-linejoin="round" />
  </defs>
  <g
     id="layer1"
     transform="translate(-35.214113,-52.690045)">
    <use
       xlink:href="#path_af9d36169856d6e0ae669c26168d3479"
       id="use12"
       x="0"
       y="0"
       width="100%"
       height="100%"
       transform="translate(0.91171345,-21.398745)" />
  </g>
</svg>
