<?xml version="1.0" encoding="UTF-8" standalone="no"?>
<!-- Created with Inkscape (http://www.inkscape.org/) -->

<svg
   width="62.391014mm"
   height="72.392265mm"
   viewBox="0 0 62.391014 72.392265"
   version="1.1"
   id="svg5"
   xmlns:xlink="http://www.w3.org/1999/xlink"
   xmlns="http://www.w3.org/2000/svg"
   xmlns:svg="http://www.w3.org/2000/svg">
  <defs
     id="defs2">
    <path
       id="path_6882e742712753655b0f173c38a1d9a9"
       d="m 85.54485,162.0862 c 0.79269,-0.5856 2.85561,-0.4901 3.04039,-0.4903 l 8.02713,-0.0118 9.62273,-2e-4 c 1.0321,-1.0668 6.871,-12.8215 7.0098,-13.0839 6.5238,-12.3352 6.4486,-12.5494 7.2389,-12.9601 0.5636,-0.2928 1.7349,-0.1443 1.9845,-0.0222 0.2128,0.104 3.2071,2.8562 8.0368,8.6962 2.8789,3.4811 5.8058,6.1624 5.9633,7.2807 0.082,0.5825 -0.2728,1.0777 -0.6757,1.8405 -1.6666,0.7038 -1.2313,0.6095 -3.1696,0.6248 -2.6409,0.0209 -7.3016,0.0147 -7.7675,0.0253 -0.1141,0.003 -0.8314,-0.0848 -1.1061,0.2796 l -0.1057,0.1132 -0.027,33.725 c -0.001,1.1859 -1.0409,1.8637 -5.7534,10.3704 -1.2308,2.2218 -4.8331,8.5822 -5.5702,8.9988 -0.4646,0.2626 -1.6499,0.2337 -2.0523,0.0289 -1.2867,-0.6549 -0.8211,-1.1905 -9.3977,-15.4062 -0.3992,0.3122 -0.3171,-0.1928 -4.54657,7.1185 -0.38746,0.6697 -4.63835,7.8876 -5.12598,8.2022 -0.36174,0.2334 -1.83108,0.3707 -2.39181,0.004 -0.87477,-0.5713 -3.68577,-6.3173 -13.36734,-22.4397 -1.90995,-3.1806 -2.16808,-1.7322 3.57663,-11.8381 4.4466,-7.8224 6.14314,-10.7507 6.55672,-11.0561 z m 1.4421,6.2896 c -0.54425,0.3281 -8.07888,13.3407 -8.11898,13.6559 -0.1118,0.8786 0.37509,0.8053 5.40966,9.6591 0.65734,1.156 4.94899,8.693 5.7131,9.4957 1.05271,-1.1887 3.57764,-5.8153 4.18106,-6.7486 1.57507,-2.4363 4.01636,-6.5587 3.9312,-7.0347 -0.03685,-0.2059 -5.14483,-8.8671 -5.25398,-9.0456 -0.12078,-0.1975 -5.16548,-9.0572 -5.86206,-9.9818 z m 19.24055,-2.3752 -7.52767,-4e-4 c -1.41702,-1e-4 -6.31218,0.01 -6.44099,0.0113 -0.7426,0.0103 -1.19703,-0.0842 -1.3486,0.2698 -0.21294,0.4974 0.31541,0.4432 6.68165,11.7596 4.43651,7.8862 13.11901,22.5448 13.43571,22.9726 1.3125,-0.562 0.244,-0.2203 4.3258,-6.6488 0.078,-0.123 3.5939,-6.1806 3.6022,-6.326 0.0557,-0.9731 -3.0395,-5.0076 -5.8866,-10.6675 -1.3119,-2.608 -6.1618,-10.956 -6.8415,-11.3706 z m 4.0661,-2.3061 c 0.004,0.9595 1.4611,2.2654 4.6332,8.403 1.4313,2.7693 3.6658,6.8681 4.4861,6.8681 V 147.161 c -1.1337,0.007 -0.594,0.3116 -4.8809,8.0895 -2.8276,5.1301 -4.2393,8.255 -4.2384,8.444 z m 13.35,-14.6524 c 0.2195,0.2265 0.1796,0.1853 0.4989,0.5148 0.4846,0 0,0 4.8461,0 -0.1811,-1.0993 -4.2326,-5.8381 -5.3452,-5.8958 1e-4,2.6905 1e-4,4.3048 2e-4,5.381 z"
       fill-rule="evenodd"
       fill="#ffffff"
       fill-opacity="1"
       stroke="#000000"
       stroke-opacity="1"
       stroke-width="0.1"
       stroke-linecap="round"
       stroke-linejoin="round" />
  </defs>
  <g
     id="layer1"
     transform="translate(-64.472762,-85.888)">
    <use
       xlink:href="#path_6882e742712753655b0f173c38a1d9a9"
       id="use12"
       x="0"
       y="0"
       width="100%"
       height="100%"
       transform="translate(-9.6664594,-49.431657)" />
  </g>
</svg>
