<?xml version="1.0" encoding="utf-8"?>
<!DOCTYPE svg PUBLIC "-//W3C//DTD SVG 1.1//EN" "http://www.w3.org/Graphics/SVG/1.1/DTD/svg11.dtd">
<!-- exported from Silhouette Studio® Business Edition V4.4.464ssbe -->
<svg version="1.1" xmlns="http://www.w3.org/2000/svg" xmlns:xlink="http://www.w3.org/1999/xlink" width="209.55mm" height="298.45mm" viewBox="0 0 209.55 298.45">
<defs>
<path id="path_7bacf9ac7351486427ad871fa66d588f" d="M -157.356 226.5104 C -158.5774 226.2426 -163.6471 224.3205 -166.8364 222.9161 C -168.6885 222.1005 -172.4679 220.2288 -174.4302 219.1554 C -184.1576 213.8345 -193.2059 206.5403 -200.7323 197.9523 C -210.0783 187.288 -216.9554 175.3894 -221.0738 162.7582 C -224.4487 152.4072 -226.0877 141.095 -225.8539 129.7657 C -225.7679 125.5981 -225.6518 123.7749 -225.2191 119.8025 C -223.7806 106.5949 -219.5444 93.69659 -212.7992 81.98638 C -203.8103 66.381 -191.6543 54.14223 -176.1282 45.06586 C -164.7311 38.40321 -152.1352 34.09517 -139.3383 32.48303 C -134.3711 31.85726 -131.5585 31.68769 -126.0373 31.68111 C -120.6337 31.67466 -117.5028 31.85429 -112.8307 32.43881 C -101.8467 33.813 -91.45691 36.95992 -81.54114 41.91594 C -77.32829 44.02156 -74.53806 45.63845 -70.56947 48.2738 C -64.04205 52.60836 -58.73151 57.05849 -53.31787 62.73034 C -44.76659 71.6895 -37.43825 83.14941 -32.8358 94.75972 C -27.4458 108.3568 -25.2045 122.8987 -26.1434 138.1807 C -27.41771 158.9212 -34.63876 177.5387 -47.80835 194.0375 C -59.41301 208.5758 -73.59171 218.8734 -90.80392 225.2642 C -94.13399 226.5006 -94.39894 226.5741 -95.70924 226.626 C -97.01314 226.6777 -97.65161 226.5843 -98.41609 226.23 C -99.3417 225.801 -100.2402 224.7605 -100.7294 223.5512 L -100.9447 223.0188 L -100.9994 207.1756 C -101.0529 191.6683 -101.0584 191.2981 -101.2581 189.7125 C -101.991 183.8927 -103.68 179.9412 -106.8531 176.6231 L -107.6862 175.7519 L -106.2965 175.5916 C -102.3342 175.1344 -97.84737 174.307 -94.44226 173.4055 C -88.08081 171.7213 -80.90987 168.1156 -76.26755 164.2668 C -71.27083 160.1241 -67.99123 155.2246 -65.47897 148.1495 C -63.60823 142.881 -62.60991 137.667 -62.21625 131.1089 C -62.05157 128.3658 -62.1481 123.0265 -62.39848 121.0285 C -63.26602 114.1056 -65.69432 108.0523 -69.75647 102.6862 C -70.61652 101.5501 -71.34357 100.6721 -71.92166 100.0713 L -72.35077 99.62532 L -71.86169 98.18518 C -71.04256 95.77309 -70.57315 93.63678 -70.336 91.24181 C -70.21199 89.98933 -70.21169 86.88971 -70.33543 85.32431 C -70.60353 81.93264 -71.81949 76.9361 -73.20569 73.52991 C -73.41577 73.01369 -73.4509 72.97891 -73.88501 72.85728 C -74.1368 72.78673 -74.93835 72.70622 -75.66628 72.67837 C -78.33142 72.5764 -81.09377 73.24758 -85.7571 75.13018 C -91.00945 77.25057 -93.66254 78.6519 -99.60268 82.44328 C -100.2654 82.86626 -100.8672 83.21234 -100.9401 83.21234 C -101.013 83.21234 -101.9778 82.98304 -103.084 82.70278 C -110.5358 80.81494 -117.9211 79.91336 -125.943 79.91222 C -134.0174 79.91107 -141.5425 80.84823 -149.075 82.79304 C -149.9682 83.02365 -150.7618 83.21234 -150.8384 83.21234 C -150.9151 83.21234 -151.5851 82.8164 -152.3274 82.33248 C -157.4508 78.99227 -160.0253 77.67471 -166.6006 75.02776 C -169.2508 73.96088 -171.6673 73.21466 -173.5812 72.87215 C -174.756 72.66193 -177.2965 72.64858 -178.0143 72.84886 C -178.5965 73.01129 -178.6096 73.03645 -179.4785 75.66729 C -180.9862 80.23243 -181.5874 83.75478 -181.5951 88.06902 C -181.6021 91.90794 -181.1422 94.76796 -179.9877 98.0653 C -179.7516 98.73958 -179.5363 99.36119 -179.5093 99.44666 C -179.4772 99.54796 -179.6712 99.83203 -180.0665 100.2626 C -182.7002 103.1316 -185.2127 107.0984 -186.7687 110.8442 C -189.0677 116.3787 -189.9333 121.8167 -189.6714 129.0805 C -189.4879 134.1702 -189.0448 137.887 -188.1465 141.8698 C -186.7613 148.012 -184.1451 154.1738 -181.1434 158.3636 C -179.0892 161.2308 -176.2281 164.0211 -173.0669 166.2401 C -169.6317 168.6514 -163.7076 171.5229 -159.4313 172.8495 C -155.7943 173.9778 -149.8671 175.1429 -145.2529 175.6365 L -144.1867 175.7506 L -145.0263 176.6101 C -147.7572 179.4059 -149.6015 183.3692 -150.3802 188.1157 L -150.5488 189.1426 L -151.1223 189.4011 C -153.5921 190.5139 -156.7878 191.3083 -159.8086 191.5605 C -163.1926 191.843 -165.1688 191.777 -167.0251 191.3197 C -171.5491 190.205 -175.9209 186.749 -178.8167 181.9981 C -180.9605 178.481 -182.4634 176.6587 -184.6359 174.9419 C -186.4374 173.5184 -189.466 171.7842 -191.0674 171.2592 C -192.1218 170.9135 -194.3871 170.5383 -195.42 170.5383 C -196.4653 170.5383 -197.575 170.6889 -198.2494 170.9223 C -198.889 171.1437 -199.4757 171.718 -199.4757 172.1228 C -199.4757 172.8527 -198.1661 174.663 -196.9014 175.6812 C -196.4754 176.0242 -195.63 176.5992 -195.0226 176.9591 C -194.4153 177.319 -193.6033 177.8669 -193.2181 178.1766 C -191.2355 179.7711 -188.5349 183.1926 -186.8365 186.2618 C -186.2171 187.3812 -185.2341 189.5357 -184.4585 191.4739 C -183.0068 195.1019 -181.3421 197.344 -178.5672 199.4084 C -175.4549 201.724 -172.5919 202.8368 -168.0625 203.4917 C -164.9429 203.9427 -163.5036 204.0442 -160.1859 204.047 C -156.7712 204.0498 -155.9763 203.9883 -152.9753 203.4886 C -151.9149 203.3121 -150.9968 203.1677 -150.935 203.1677 C -150.7697 203.1677 -150.6346 221.9129 -150.7937 222.783 C -150.9647 223.7184 -151.4691 224.6765 -152.1502 225.3594 C -153.1119 226.3237 -154.0394 226.6543 -155.7485 226.642 C -156.3213 226.6379 -157.0447 226.5787 -157.356 226.5104 Z" fill-rule="evenodd" fill="#FFFFFF" fill-opacity="1" stroke="none" stroke-opacity="1" stroke-width="0.1" stroke-linecap="round" stroke-linejoin="round"/>
</defs>
<g>
<use xlink:href="#path_7bacf9ac7351486427ad871fa66d588f"/>
</g>
</svg>