<?xml version="1.0" encoding="utf-8"?>
<!DOCTYPE svg PUBLIC "-//W3C//DTD SVG 1.1//EN" "http://www.w3.org/Graphics/SVG/1.1/DTD/svg11.dtd">
<!-- exported from Silhouette Studio® Business Edition V4.4.464ssbe -->
<svg version="1.1" xmlns="http://www.w3.org/2000/svg" xmlns:xlink="http://www.w3.org/1999/xlink" width="209.55mm" height="298.45mm" viewBox="0 0 209.55 298.45">
<defs>
<path id="path_3de4db830361057456e2b29d7e62fd7a" d="M -25.61694 144.3477 L -25.61694 17.36185 L 101.3804 17.36185 L 228.3777 17.36185 L 228.3777 144.3477 L 228.3777 271.3335 L 101.3804 271.3335 L -25.61694 271.3335 L -25.61694 144.3477 Z M 42.75856 247.9179 C 43.11294 247.7356 43.31069 247.537 43.49588 247.1774 L 43.74893 246.6859 L 43.74771 178.4239 L 43.74649 110.162 L 43.51429 109.6826 C 43.35091 109.3452 43.15085 109.133 42.83923 108.9664 L 42.39636 108.7297 L 22.30759 108.7098 C 0.069006 108.6877 1.537286 108.6422 0.8939438 109.3745 C 0.7180996 109.5747 0.5233684 109.92 0.4612045 110.1419 C 0.3032046 110.7059 0.304584 246.228 0.4625969 246.799 C 0.6876292 247.6123 1.309997 248.0729 2.325678 248.178 C 2.501988 248.1963 11.56255 248.2013 22.46027 248.1891 L 42.27429 248.167 L 42.75856 247.9179 Z M 112.608 248.0484 C 113.2002 247.8531 113.684 247.3631 113.9022 246.7377 C 114.088 246.2053 114.0948 244.9731 114.0649 217.3992 C 114.0294 184.7356 114.1231 173.7063 114.4647 170.3536 C 115.1205 163.9165 116.2985 159.3719 118.394 155.1957 C 121.9092 148.1899 128.355 144.1088 136.8744 143.4948 C 140.7253 143.2173 144.9523 143.4953 147.4583 144.1908 C 152.6934 145.6438 156.4176 148.7403 158.9189 153.7199 C 160.5724 157.0115 161.7729 161.4857 162.2786 166.2418 C 162.3692 167.0935 162.4741 168.0067 162.5118 168.271 C 162.5496 168.5353 162.6108 186.2696 162.6478 207.6804 L 162.7153 246.6092 L 162.9619 247.1096 C 163.2123 247.6176 163.6305 247.9492 164.202 248.0925 C 164.6801 248.2125 204.4374 248.1832 204.8425 248.0626 C 205.404 247.8954 205.8428 247.517 206.0829 246.9928 L 206.3076 246.5024 L 206.2772 206.0784 C 206.2596 182.7417 206.2036 164.6386 206.1447 163.2514 C 205.7856 154.7875 205.1932 149.4396 203.9501 143.4399 C 202.1547 134.7747 199.2655 127.7564 195.2009 122.1866 C 193.4801 119.8286 190.7859 117.0124 188.4673 115.1483 C 186.9633 113.939 184.3703 112.2204 182.5764 111.2437 C 175.749 107.5268 166.5964 105.4612 156.1971 105.2903 C 154.0707 105.2553 151.9497 105.2798 150.8543 105.3519 C 143.8144 105.8153 137.6615 107.4103 131.8341 110.2825 C 124.1819 114.0541 118.2253 119.407 113.7677 126.5179 L 113.128 127.5385 L 112.7758 127.4473 L 112.4236 127.3561 L 112.4445 118.7371 C 112.4671 109.4552 112.4791 109.6756 111.9246 109.174 C 111.3831 108.6843 111.8773 108.6961 91.80574 108.6918 C 71.14078 108.6874 72.09129 108.6595 71.48885 109.288 C 71.33115 109.4525 71.12762 109.7982 71.03654 110.0562 C 70.88767 110.478 70.87113 117.3746 70.87268 178.4312 L 70.87439 246.3372 L 71.09428 246.9246 C 71.35587 247.6234 71.74948 247.9445 72.53745 248.1017 C 73.37157 248.2682 112.0979 248.2167 112.608 248.0484 Z M 25.0099 89.65923 C 33.40299 88.7421 40.97917 83.30034 44.85099 75.40794 C 46.81222 71.41012 47.5729 67.64023 47.35077 63.01907 C 47.00442 55.81377 43.24216 48.84724 37.30321 44.41413 C 27.22299 36.88977 13.19027 37.88222 4.317112 46.74703 C 0.494487 50.56606 -1.862834 55.14643 -2.820696 60.61606 C -3.101386 62.21888 -3.100646 66.69229 -2.819424 68.3057 C -1.829723 73.98373 0.59935 78.65941 4.598259 82.58386 C 8.468843 86.38237 13.75799 88.93497 19.15536 89.60928 C 20.55123 89.78367 23.63068 89.80994 25.0099 89.65923 Z" fill-rule="evenodd" fill="#FFFFFF" fill-opacity="1" stroke="none" stroke-opacity="1" stroke-width="0.1" stroke-linecap="round" stroke-linejoin="round"/>
</defs>
<g>
<use xlink:href="#path_3de4db830361057456e2b29d7e62fd7a"/>
</g>
</svg>